G04 Layer_Color=2752767*
%FSTAX24Y24*%
%MOIN*%
G70*
G01*
G75*
%ADD76C,0.0020*%
%ADD77C,0.0027*%
D76*
X053888Y036853D02*
Y037013D01*
X054048D01*
Y036853D01*
X053888D01*
Y035853D02*
Y036013D01*
X054048D01*
Y035853D01*
X053888D01*
Y034853D02*
Y035013D01*
X054048D01*
Y034853D01*
X053888D01*
Y033853D02*
Y034013D01*
X054048D01*
Y033853D01*
X053888D01*
X044573Y043505D02*
Y043665D01*
X044733D01*
Y043505D01*
X044573D01*
X045573D02*
Y043665D01*
X045733D01*
Y043505D01*
X045573D01*
X049208D02*
Y043665D01*
X049368D01*
Y043505D01*
X049208D01*
X050208D02*
Y043665D01*
X050368D01*
Y043505D01*
X050208D01*
X038231D02*
Y043665D01*
X038391D01*
Y043505D01*
X038231D01*
X039231D02*
Y043665D01*
X039391D01*
Y043505D01*
X039231D01*
X040231D02*
Y043665D01*
X040391D01*
Y043505D01*
X040231D01*
X041231D02*
Y043665D01*
X041391D01*
Y043505D01*
X041231D01*
X037231D02*
Y043665D01*
X037391D01*
Y043505D01*
X037231D01*
X045824Y039715D02*
X045744Y039875D01*
X045904D01*
X045824Y039715D01*
Y038705D02*
X045744Y038865D01*
X045904D01*
X045824Y038705D01*
Y037725D02*
X045744Y037885D01*
X045904D01*
X045824Y037725D01*
Y036715D02*
X045744Y036875D01*
X045904D01*
X045824Y036715D01*
X053857Y031794D02*
X053897Y031834D01*
X053937D01*
X053897Y031874D01*
X053937Y031914D01*
X053897D01*
X053857Y031954D01*
X053817Y031914D01*
X053777D01*
X053817Y031874D01*
X053777Y031834D01*
X053817D01*
X053857Y031794D01*
X026693Y031654D02*
X026733Y031694D01*
X026773D01*
X026733Y031734D01*
X026773Y031774D01*
X026733D01*
X026693Y031814D01*
X026653Y031774D01*
X026613D01*
X026653Y031734D01*
X026613Y031694D01*
X026653D01*
X026693Y031654D01*
X053857Y044086D02*
X053897Y044126D01*
X053937D01*
X053897Y044166D01*
X053937Y044206D01*
X053897D01*
X053857Y044246D01*
X053817Y044206D01*
X053777D01*
X053817Y044166D01*
X053777Y044126D01*
X053817D01*
X053857Y044086D01*
X027424Y040248D02*
Y040408D01*
X027584D01*
Y040248D01*
X027424D01*
X02953Y040268D02*
Y040428D01*
X02969D01*
Y040268D01*
X02953D01*
Y044185D02*
Y044345D01*
X02969D01*
Y044185D01*
X02953D01*
X027424D02*
Y044345D01*
X027584D01*
Y044185D01*
X027424D01*
X032568Y040222D02*
Y040382D01*
X032728D01*
Y040222D01*
X032568D01*
X034675Y040241D02*
Y040401D01*
X034835D01*
Y040241D01*
X034675D01*
Y044159D02*
Y044319D01*
X034835D01*
Y044159D01*
X034675D01*
X032568D02*
Y044319D01*
X032728D01*
Y044159D01*
X032568D01*
X028819Y03156D02*
X028859Y03164D01*
X028819Y03172D01*
X028899Y03168D01*
X028979Y03172D01*
X028939Y03164D01*
X028979Y03156D01*
X028899Y0316D01*
X028819Y03156D01*
X04337Y036274D02*
X04341Y036354D01*
X04337Y036434D01*
X04345Y036394D01*
X04353Y036434D01*
X04349Y036354D01*
X04353Y036274D01*
X04345Y036314D01*
X04337Y036274D01*
Y036899D02*
X04341Y036979D01*
X04337Y037059D01*
X04345Y037019D01*
X04353Y037059D01*
X04349Y036979D01*
X04353Y036899D01*
X04345Y036939D01*
X04337Y036899D01*
X039828Y034723D02*
X039868Y034803D01*
X039828Y034883D01*
X039908Y034843D01*
X039988Y034883D01*
X039948Y034803D01*
X039988Y034723D01*
X039908Y034763D01*
X039828Y034723D01*
X032406Y031612D02*
X032446Y031692D01*
X032406Y031772D01*
X032486Y031732D01*
X032566Y031772D01*
X032526Y031692D01*
X032566Y031612D01*
X032486Y031652D01*
X032406Y031612D01*
X04047Y037851D02*
X04051Y037931D01*
X04047Y038011D01*
X04055Y037971D01*
X04063Y038011D01*
X04059Y037931D01*
X04063Y037851D01*
X04055Y037891D01*
X04047Y037851D01*
X038128Y037395D02*
X038168Y037475D01*
X038128Y037555D01*
X038208Y037515D01*
X038288Y037555D01*
X038248Y037475D01*
X038288Y037395D01*
X038208Y037435D01*
X038128Y037395D01*
X03496Y038469D02*
X035Y038549D01*
X03496Y038629D01*
X03504Y038589D01*
X03512Y038629D01*
X03508Y038549D01*
X03512Y038469D01*
X03504Y038509D01*
X03496Y038469D01*
X043118Y042164D02*
X043158Y042244D01*
X043118Y042324D01*
X043198Y042284D01*
X043278Y042324D01*
X043238Y042244D01*
X043278Y042164D01*
X043198Y042204D01*
X043118Y042164D01*
X036418Y032701D02*
X036458Y032781D01*
X036418Y032861D01*
X036498Y032821D01*
X036578Y032861D01*
X036538Y032781D01*
X036578Y032701D01*
X036498Y032741D01*
X036418Y032701D01*
X036402Y037814D02*
X036442Y037894D01*
X036402Y037974D01*
X036482Y037934D01*
X036562Y037974D01*
X036522Y037894D01*
X036562Y037814D01*
X036482Y037854D01*
X036402Y037814D01*
X04357Y031321D02*
X04361Y031401D01*
X04357Y031481D01*
X04365Y031441D01*
X04373Y031481D01*
X04369Y031401D01*
X04373Y031321D01*
X04365Y031361D01*
X04357Y031321D01*
X051774Y031305D02*
X051814Y031385D01*
X051774Y031465D01*
X051854Y031425D01*
X051934Y031465D01*
X051894Y031385D01*
X051934Y031305D01*
X051854Y031345D01*
X051774Y031305D01*
X047418Y044801D02*
X047458Y044881D01*
X047418Y044961D01*
X047498Y044921D01*
X047578Y044961D01*
X047538Y044881D01*
X047578Y044801D01*
X047498Y044841D01*
X047418Y044801D01*
X049542D02*
X049582Y044881D01*
X049542Y044961D01*
X049622Y044921D01*
X049702Y044961D01*
X049662Y044881D01*
X049702Y044801D01*
X049622Y044841D01*
X049542Y044801D01*
X051666D02*
X051706Y044881D01*
X051666Y044961D01*
X051746Y044921D01*
X051826Y044961D01*
X051786Y044881D01*
X051826Y044801D01*
X051746Y044841D01*
X051666Y044801D01*
X04317D02*
X04321Y044881D01*
X04317Y044961D01*
X04325Y044921D01*
X04333Y044961D01*
X04329Y044881D01*
X04333Y044801D01*
X04325Y044841D01*
X04317Y044801D01*
X045294D02*
X045334Y044881D01*
X045294Y044961D01*
X045374Y044921D01*
X045454Y044961D01*
X045414Y044881D01*
X045454Y044801D01*
X045374Y044841D01*
X045294Y044801D01*
X048649Y031305D02*
X048689Y031385D01*
X048649Y031465D01*
X048729Y031425D01*
X048809Y031465D01*
X048769Y031385D01*
X048809Y031305D01*
X048729Y031345D01*
X048649Y031305D01*
X050212D02*
X050252Y031385D01*
X050212Y031465D01*
X050292Y031425D01*
X050372Y031465D01*
X050332Y031385D01*
X050372Y031305D01*
X050292Y031345D01*
X050212Y031305D01*
X054935Y037809D02*
X054975Y037889D01*
X054935Y037969D01*
X055015Y037929D01*
X055095Y037969D01*
X055055Y037889D01*
X055095Y037809D01*
X055015Y037849D01*
X054935Y037809D01*
Y036174D02*
X054975Y036254D01*
X054935Y036334D01*
X055015Y036294D01*
X055095Y036334D01*
X055055Y036254D01*
X055095Y036174D01*
X055015Y036214D01*
X054935Y036174D01*
Y034538D02*
X054975Y034618D01*
X054935Y034698D01*
X055015Y034658D01*
X055095Y034698D01*
X055055Y034618D01*
X055095Y034538D01*
X055015Y034578D01*
X054935Y034538D01*
X05491Y032903D02*
X05495Y032983D01*
X05491Y033063D01*
X05499Y033023D01*
X05507Y033063D01*
X05503Y032983D01*
X05507Y032903D01*
X05499Y032943D01*
X05491Y032903D01*
X052787Y032904D02*
X052827Y032984D01*
X052787Y033064D01*
X052867Y033024D01*
X052947Y033064D01*
X052907Y032984D01*
X052947Y032904D01*
X052867Y032944D01*
X052787Y032904D01*
X043399Y039423D02*
X043439Y039503D01*
X043399Y039583D01*
X043479Y039543D01*
X043559Y039583D01*
X043519Y039503D01*
X043559Y039423D01*
X043479Y039463D01*
X043399Y039423D01*
X028063Y03156D02*
X028103Y03164D01*
X028063Y03172D01*
X028143Y03168D01*
X028223Y03172D01*
X028183Y03164D01*
X028223Y03156D01*
X028143Y0316D01*
X028063Y03156D01*
X037986Y032627D02*
X038026Y032707D01*
X037986Y032787D01*
X038066Y032747D01*
X038146Y032787D01*
X038106Y032707D01*
X038146Y032627D01*
X038066Y032667D01*
X037986Y032627D01*
X040252Y032655D02*
X040292Y032735D01*
X040252Y032815D01*
X040332Y032775D01*
X040412Y032815D01*
X040372Y032735D01*
X040412Y032655D01*
X040332Y032695D01*
X040252Y032655D01*
X037984Y034473D02*
X038024Y034553D01*
X037984Y034633D01*
X038064Y034593D01*
X038144Y034633D01*
X038104Y034553D01*
X038144Y034473D01*
X038064Y034513D01*
X037984Y034473D01*
X038566D02*
X038606Y034553D01*
X038566Y034633D01*
X038646Y034593D01*
X038726Y034633D01*
X038686Y034553D01*
X038726Y034473D01*
X038646Y034513D01*
X038566Y034473D01*
X039039Y038623D02*
X039079Y038703D01*
X039039Y038783D01*
X039119Y038743D01*
X039199Y038783D01*
X039159Y038703D01*
X039199Y038623D01*
X039119Y038663D01*
X039039Y038623D01*
D77*
X050901Y040477D02*
G03*
X050901Y040477I-00008J0D01*
G01*
Y039477D02*
G03*
X050901Y039477I-00008J0D01*
G01*
X047901D02*
G03*
X047901Y039477I-00008J0D01*
G01*
Y040477D02*
G03*
X047901Y040477I-00008J0D01*
G01*
M02*
