G04 Layer_Physical_Order=2*
G04 Layer_Color=16711680*
%FSTAX24Y24*%
%MOIN*%
G70*
G01*
G75*
%ADD10C,0.0110*%
%ADD11C,0.0150*%
%ADD14C,0.0300*%
%ADD33O,0.0900X0.0750*%
%ADD34R,0.0900X0.0750*%
%ADD35O,0.0750X0.0900*%
%ADD36R,0.0750X0.0900*%
%ADD37O,0.0900X0.0600*%
%ADD38R,0.0900X0.0600*%
%ADD39O,0.0750X0.0650*%
%ADD40C,0.1181*%
%ADD41C,0.0315*%
G36*
X041943Y042589D02*
X025947D01*
Y045448D01*
X041943D01*
Y042589D01*
D02*
G37*
G36*
X041113Y042177D02*
X041024Y042101D01*
X041022Y042099D01*
X041022Y042099D01*
X041022Y042099D01*
X037912Y03899D01*
X037907Y038982D01*
X037794Y038889D01*
X037657Y038816D01*
X037508Y038771D01*
X037363Y038757D01*
X037353Y038758D01*
X035897D01*
Y042227D01*
X041094D01*
X041113Y042177D01*
D02*
G37*
G36*
X055458Y031041D02*
X027513D01*
X027513Y032235D01*
X035897Y032235D01*
Y03834D01*
X037353D01*
X037356Y038341D01*
X037542Y038356D01*
X037727Y0384D01*
X037902Y038473D01*
X038064Y038572D01*
X038206Y038693D01*
X038208Y038695D01*
X041317Y041804D01*
X041317Y041804D01*
X041353Y041837D01*
X041435Y041904D01*
X041573Y041978D01*
X041722Y042023D01*
X041867Y042037D01*
X041877Y042035D01*
X042971D01*
X042978Y042025D01*
X043043Y041976D01*
X043117Y041945D01*
X043198Y041934D01*
X043278Y041945D01*
X043353Y041976D01*
X043417Y042025D01*
X043466Y042089D01*
X043497Y042164D01*
X043508Y042244D01*
X043497Y042325D01*
X043466Y042399D01*
X043417Y042464D01*
X043353Y042513D01*
X043278Y042544D01*
X043198Y042554D01*
X043117Y042544D01*
X043043Y042513D01*
X042978Y042464D01*
X042971Y042453D01*
X042594D01*
X042594Y045448D01*
X055458D01*
Y031041D01*
D02*
G37*
G36*
X035441Y038852D02*
X035099D01*
X03504Y03886D01*
X034981Y038852D01*
X025947D01*
Y041934D01*
X035441D01*
X035441Y038852D01*
D02*
G37*
%LPC*%
G36*
X027559Y044822D02*
Y04432D01*
X027993D01*
Y04434D01*
X027976Y044467D01*
X027928Y044585D01*
X02785Y044686D01*
X027748Y044764D01*
X02763Y044812D01*
X027559Y044822D01*
D02*
G37*
G36*
X027449D02*
X027377Y044812D01*
X027259Y044764D01*
X027158Y044686D01*
X02708Y044585D01*
X027031Y044467D01*
X027015Y04434D01*
Y04432D01*
X027449D01*
Y044822D01*
D02*
G37*
G36*
X032703Y044796D02*
Y044294D01*
X033137D01*
Y044314D01*
X033121Y04444D01*
X033072Y044558D01*
X032994Y04466D01*
X032893Y044737D01*
X032775Y044786D01*
X032703Y044796D01*
D02*
G37*
G36*
X032593D02*
X032522Y044786D01*
X032404Y044737D01*
X032302Y04466D01*
X032225Y044558D01*
X032176Y04444D01*
X032159Y044314D01*
Y044294D01*
X032593D01*
Y044796D01*
D02*
G37*
G36*
X038311Y044189D02*
X038174Y044171D01*
X038046Y044118D01*
X037937Y044034D01*
X037853Y043924D01*
X037836Y043885D01*
X037786D01*
X03777Y043924D01*
X037686Y044034D01*
X037576Y044118D01*
X037448Y044171D01*
X037311Y044189D01*
X037174Y044171D01*
X037046Y044118D01*
X036937Y044034D01*
X036853Y043924D01*
X0368Y043797D01*
X036782Y04366D01*
Y04351D01*
X0368Y043373D01*
X036853Y043245D01*
X036937Y043135D01*
X037046Y043051D01*
X037174Y042998D01*
X037311Y04298D01*
X037448Y042998D01*
X037576Y043051D01*
X037686Y043135D01*
X03777Y043245D01*
X037786Y043284D01*
X037836D01*
X037853Y043245D01*
X037937Y043135D01*
X038046Y043051D01*
X038174Y042998D01*
X038311Y04298D01*
X038448Y042998D01*
X038576Y043051D01*
X038686Y043135D01*
X03877Y043245D01*
X038806Y043332D01*
X03886D01*
X038888Y043265D01*
X038965Y043164D01*
X039067Y043086D01*
X039185Y043037D01*
X039256Y043028D01*
Y043585D01*
Y044142D01*
X039185Y044132D01*
X039067Y044083D01*
X038965Y044006D01*
X038888Y043904D01*
X03886Y043837D01*
X038806D01*
X03877Y043924D01*
X038686Y044034D01*
X038576Y044118D01*
X038448Y044171D01*
X038311Y044189D01*
D02*
G37*
G36*
X040311D02*
X040174Y044171D01*
X040046Y044118D01*
X039937Y044034D01*
X039853Y043924D01*
X039817Y043837D01*
X039763D01*
X039735Y043904D01*
X039657Y044006D01*
X039556Y044083D01*
X039438Y044132D01*
X039366Y044142D01*
Y043585D01*
Y043028D01*
X039438Y043037D01*
X039556Y043086D01*
X039657Y043164D01*
X039735Y043265D01*
X039763Y043332D01*
X039817D01*
X039853Y043245D01*
X039937Y043135D01*
X040046Y043051D01*
X040174Y042998D01*
X040311Y04298D01*
X040448Y042998D01*
X040576Y043051D01*
X040686Y043135D01*
X040736Y043201D01*
X040786Y043184D01*
Y042985D01*
X041836D01*
Y044185D01*
X040786D01*
Y043985D01*
X040736Y043968D01*
X040686Y044034D01*
X040576Y044118D01*
X040448Y044171D01*
X040311Y044189D01*
D02*
G37*
G36*
X027993Y04421D02*
X027559D01*
Y043708D01*
X02763Y043717D01*
X027748Y043766D01*
X02785Y043844D01*
X027928Y043945D01*
X027976Y044063D01*
X027993Y04419D01*
Y04421D01*
D02*
G37*
G36*
X027449D02*
X027015D01*
Y04419D01*
X027031Y044063D01*
X02708Y043945D01*
X027158Y043844D01*
X027259Y043766D01*
X027377Y043717D01*
X027449Y043708D01*
Y04421D01*
D02*
G37*
G36*
X033137Y044184D02*
X032703D01*
Y043682D01*
X032775Y043691D01*
X032893Y04374D01*
X032994Y043818D01*
X033072Y043919D01*
X033121Y044037D01*
X033137Y044164D01*
Y044184D01*
D02*
G37*
G36*
X032593D02*
X032159D01*
Y044164D01*
X032176Y044037D01*
X032225Y043919D01*
X032302Y043818D01*
X032404Y04374D01*
X032522Y043691D01*
X032593Y043682D01*
Y044184D01*
D02*
G37*
G36*
X02961Y04487D02*
X029473Y044851D01*
X029345Y044799D01*
X029236Y044714D01*
X029152Y044605D01*
X029099Y044477D01*
X029081Y04434D01*
Y04419D01*
X029099Y044053D01*
X029152Y043925D01*
X029236Y043816D01*
X029345Y043731D01*
X029473Y043678D01*
X02961Y04366D01*
X029747Y043678D01*
X029875Y043731D01*
X029985Y043816D01*
X030069Y043925D01*
X030122Y044053D01*
X03014Y04419D01*
Y04434D01*
X030122Y044477D01*
X030069Y044605D01*
X029985Y044714D01*
X029875Y044799D01*
X029747Y044851D01*
X02961Y04487D01*
D02*
G37*
G36*
X034755Y044843D02*
X034618Y044825D01*
X03449Y044772D01*
X03438Y044688D01*
X034296Y044578D01*
X034243Y044451D01*
X034225Y044314D01*
Y044164D01*
X034243Y044027D01*
X034296Y043899D01*
X03438Y043789D01*
X03449Y043705D01*
X034618Y043652D01*
X034755Y043634D01*
X034892Y043652D01*
X035019Y043705D01*
X035129Y043789D01*
X035213Y043899D01*
X035266Y044027D01*
X035284Y044164D01*
Y044314D01*
X035266Y044451D01*
X035213Y044578D01*
X035129Y044688D01*
X035019Y044772D01*
X034892Y044825D01*
X034755Y044843D01*
D02*
G37*
G36*
X051801Y045144D02*
Y044936D01*
X052008D01*
X052006Y044951D01*
X051979Y045016D01*
X051937Y045072D01*
X051881Y045115D01*
X051816Y045142D01*
X051801Y045144D01*
D02*
G37*
G36*
X051691D02*
X051676Y045142D01*
X051611Y045115D01*
X051555Y045072D01*
X051512Y045016D01*
X051485Y044951D01*
X051483Y044936D01*
X051691D01*
Y045144D01*
D02*
G37*
G36*
X049677D02*
Y044936D01*
X049884D01*
X049882Y044951D01*
X049855Y045016D01*
X049813Y045072D01*
X049757Y045115D01*
X049692Y045142D01*
X049677Y045144D01*
D02*
G37*
G36*
X049567D02*
X049552Y045142D01*
X049487Y045115D01*
X049431Y045072D01*
X049388Y045016D01*
X049361Y044951D01*
X049359Y044936D01*
X049567D01*
Y045144D01*
D02*
G37*
G36*
X047553D02*
Y044936D01*
X04776D01*
X047759Y044951D01*
X047732Y045016D01*
X047689Y045072D01*
X047633Y045115D01*
X047568Y045142D01*
X047553Y045144D01*
D02*
G37*
G36*
X047443D02*
X047428Y045142D01*
X047363Y045115D01*
X047307Y045072D01*
X047264Y045016D01*
X047237Y044951D01*
X047235Y044936D01*
X047443D01*
Y045144D01*
D02*
G37*
G36*
X045429D02*
Y044936D01*
X045637D01*
X045635Y044951D01*
X045608Y045016D01*
X045565Y045072D01*
X045509Y045115D01*
X045444Y045142D01*
X045429Y045144D01*
D02*
G37*
G36*
X045319D02*
X045304Y045142D01*
X045239Y045115D01*
X045183Y045072D01*
X04514Y045016D01*
X045113Y044951D01*
X045111Y044936D01*
X045319D01*
Y045144D01*
D02*
G37*
G36*
X043305D02*
Y044936D01*
X043513D01*
X043511Y044951D01*
X043484Y045016D01*
X043441Y045072D01*
X043385Y045115D01*
X04332Y045142D01*
X043305Y045144D01*
D02*
G37*
G36*
X043195D02*
X04318Y045142D01*
X043115Y045115D01*
X043059Y045072D01*
X043016Y045016D01*
X042989Y044951D01*
X042988Y044936D01*
X043195D01*
Y045144D01*
D02*
G37*
G36*
X052008Y044826D02*
X051801D01*
Y044618D01*
X051816Y04462D01*
X051881Y044647D01*
X051937Y04469D01*
X051979Y044746D01*
X052006Y044811D01*
X052008Y044826D01*
D02*
G37*
G36*
X051691D02*
X051483D01*
X051485Y044811D01*
X051512Y044746D01*
X051555Y04469D01*
X051611Y044647D01*
X051676Y04462D01*
X051691Y044618D01*
Y044826D01*
D02*
G37*
G36*
X049884D02*
X049677D01*
Y044618D01*
X049692Y04462D01*
X049757Y044647D01*
X049813Y04469D01*
X049855Y044746D01*
X049882Y044811D01*
X049884Y044826D01*
D02*
G37*
G36*
X049567D02*
X049359D01*
X049361Y044811D01*
X049388Y044746D01*
X049431Y04469D01*
X049487Y044647D01*
X049552Y04462D01*
X049567Y044618D01*
Y044826D01*
D02*
G37*
G36*
X04776D02*
X047553D01*
Y044618D01*
X047568Y04462D01*
X047633Y044647D01*
X047689Y04469D01*
X047732Y044746D01*
X047759Y044811D01*
X04776Y044826D01*
D02*
G37*
G36*
X047443D02*
X047235D01*
X047237Y044811D01*
X047264Y044746D01*
X047307Y04469D01*
X047363Y044647D01*
X047428Y04462D01*
X047443Y044618D01*
Y044826D01*
D02*
G37*
G36*
X045637D02*
X045429D01*
Y044618D01*
X045444Y04462D01*
X045509Y044647D01*
X045565Y04469D01*
X045608Y044746D01*
X045635Y044811D01*
X045637Y044826D01*
D02*
G37*
G36*
X045319D02*
X045111D01*
X045113Y044811D01*
X04514Y044746D01*
X045183Y04469D01*
X045239Y044647D01*
X045304Y04462D01*
X045319Y044618D01*
Y044826D01*
D02*
G37*
G36*
X043513D02*
X043305D01*
Y044618D01*
X04332Y04462D01*
X043385Y044647D01*
X043441Y04469D01*
X043484Y044746D01*
X043511Y044811D01*
X043513Y044826D01*
D02*
G37*
G36*
X043195D02*
X042988D01*
X042989Y044811D01*
X043016Y044746D01*
X043059Y04469D01*
X043115Y044647D01*
X04318Y04462D01*
X043195Y044618D01*
Y044826D01*
D02*
G37*
G36*
X046138Y044145D02*
X045708D01*
Y04364D01*
X046138D01*
Y044145D01*
D02*
G37*
G36*
X053857Y04491D02*
X053712Y044895D01*
X053572Y044853D01*
X053444Y044784D01*
X053331Y044692D01*
X053238Y044579D01*
X05317Y04445D01*
X053127Y044311D01*
X053113Y044166D01*
X053127Y04402D01*
X05317Y043881D01*
X053238Y043752D01*
X053331Y043639D01*
X053444Y043547D01*
X053572Y043478D01*
X053712Y043436D01*
X053857Y043422D01*
X054002Y043436D01*
X054142Y043478D01*
X054271Y043547D01*
X054383Y043639D01*
X054476Y043752D01*
X054545Y043881D01*
X054587Y04402D01*
X054601Y044166D01*
X054587Y044311D01*
X054545Y04445D01*
X054476Y044579D01*
X054383Y044692D01*
X054271Y044784D01*
X054142Y044853D01*
X054002Y044895D01*
X053857Y04491D01*
D02*
G37*
G36*
X046138Y04353D02*
X045708D01*
Y043025D01*
X046138D01*
Y04353D01*
D02*
G37*
G36*
X044653Y044189D02*
X044516Y044171D01*
X044388Y044118D01*
X044278Y044034D01*
X044194Y043924D01*
X044141Y043797D01*
X044123Y04366D01*
Y04351D01*
X044141Y043373D01*
X044194Y043245D01*
X044278Y043135D01*
X044388Y043051D01*
X044516Y042998D01*
X044653Y04298D01*
X04479Y042998D01*
X044917Y043051D01*
X045027Y043135D01*
X045111Y043245D01*
X045118Y04326D01*
X045168Y04325D01*
Y043025D01*
X045598D01*
Y043585D01*
Y044145D01*
X045168D01*
Y043919D01*
X045118Y043909D01*
X045111Y043924D01*
X045027Y044034D01*
X044917Y044118D01*
X04479Y044171D01*
X044653Y044189D01*
D02*
G37*
G36*
X049288D02*
X04915Y044171D01*
X049023Y044118D01*
X048913Y044034D01*
X048829Y043924D01*
X048776Y043797D01*
X048758Y04366D01*
Y04351D01*
X048776Y043373D01*
X048829Y043245D01*
X048913Y043135D01*
X049023Y043051D01*
X04915Y042998D01*
X049288Y04298D01*
X049425Y042998D01*
X049552Y043051D01*
X049662Y043135D01*
X049713Y043201D01*
X049763Y043184D01*
Y042985D01*
X050813D01*
Y044185D01*
X049763D01*
Y043985D01*
X049713Y043968D01*
X049662Y044034D01*
X049552Y044118D01*
X049425Y044171D01*
X049288Y044189D01*
D02*
G37*
G36*
X048421Y040927D02*
X047221D01*
Y040027D01*
X048421D01*
Y040927D01*
D02*
G37*
G36*
X043534Y039765D02*
Y039558D01*
X043742D01*
X04374Y039572D01*
X043713Y039638D01*
X04367Y039693D01*
X043614Y039736D01*
X043549Y039763D01*
X043534Y039765D01*
D02*
G37*
G36*
X043424D02*
X043409Y039763D01*
X043344Y039736D01*
X043288Y039693D01*
X043246Y039638D01*
X043219Y039572D01*
X043217Y039558D01*
X043424D01*
Y039765D01*
D02*
G37*
G36*
X047971Y03989D02*
X047876D01*
Y039532D01*
X048378D01*
X048371Y039584D01*
X048329Y039683D01*
X048264Y039769D01*
X048178Y039835D01*
X048078Y039876D01*
X047971Y03989D01*
D02*
G37*
G36*
X047766D02*
X047671D01*
X047564Y039876D01*
X047465Y039835D01*
X047379Y039769D01*
X047313Y039683D01*
X047272Y039584D01*
X047265Y039532D01*
X047766D01*
Y03989D01*
D02*
G37*
G36*
X043742Y039448D02*
X043534D01*
Y03924D01*
X043549Y039242D01*
X043614Y039269D01*
X04367Y039312D01*
X043713Y039368D01*
X04374Y039433D01*
X043742Y039448D01*
D02*
G37*
G36*
X043424D02*
X043217D01*
X043219Y039433D01*
X043246Y039368D01*
X043288Y039312D01*
X043344Y039269D01*
X043409Y039242D01*
X043424Y03924D01*
Y039448D01*
D02*
G37*
G36*
X048378Y039422D02*
X047876D01*
Y039063D01*
X047971D01*
X048078Y039077D01*
X048178Y039118D01*
X048264Y039184D01*
X048329Y03927D01*
X048371Y03937D01*
X048378Y039422D01*
D02*
G37*
G36*
X047766D02*
X047265D01*
X047272Y03937D01*
X047313Y03927D01*
X047379Y039184D01*
X047465Y039118D01*
X047564Y039077D01*
X047671Y039063D01*
X047766D01*
Y039422D01*
D02*
G37*
G36*
X039174Y038966D02*
Y038758D01*
X039382D01*
X03938Y038773D01*
X039353Y038838D01*
X03931Y038894D01*
X039254Y038937D01*
X039189Y038964D01*
X039174Y038966D01*
D02*
G37*
G36*
X039064D02*
X039049Y038964D01*
X038984Y038937D01*
X038928Y038894D01*
X038885Y038838D01*
X038858Y038773D01*
X038856Y038758D01*
X039064D01*
Y038966D01*
D02*
G37*
G36*
X039382Y038648D02*
X039174D01*
Y038441D01*
X039189Y038443D01*
X039254Y03847D01*
X03931Y038513D01*
X039353Y038569D01*
X03938Y038634D01*
X039382Y038648D01*
D02*
G37*
G36*
X039064D02*
X038856D01*
X038858Y038634D01*
X038885Y038569D01*
X038928Y038513D01*
X038984Y03847D01*
X039049Y038443D01*
X039064Y038441D01*
Y038648D01*
D02*
G37*
G36*
X036537Y038156D02*
Y037949D01*
X036745D01*
X036743Y037963D01*
X036716Y038028D01*
X036673Y038084D01*
X036617Y038127D01*
X036552Y038154D01*
X036537Y038156D01*
D02*
G37*
G36*
X036427D02*
X036413Y038154D01*
X036347Y038127D01*
X036292Y038084D01*
X036249Y038028D01*
X036222Y037963D01*
X03622Y037949D01*
X036427D01*
Y038156D01*
D02*
G37*
G36*
X05507Y038152D02*
Y037944D01*
X055278D01*
X055276Y037959D01*
X055249Y038024D01*
X055206Y03808D01*
X05515Y038123D01*
X055085Y03815D01*
X05507Y038152D01*
D02*
G37*
G36*
X05496D02*
X054945Y03815D01*
X05488Y038123D01*
X054824Y03808D01*
X054781Y038024D01*
X054754Y037959D01*
X054752Y037944D01*
X05496D01*
Y038152D01*
D02*
G37*
G36*
X036745Y037839D02*
X036537D01*
Y037631D01*
X036552Y037633D01*
X036617Y03766D01*
X036673Y037703D01*
X036716Y037759D01*
X036743Y037824D01*
X036745Y037839D01*
D02*
G37*
G36*
X036427D02*
X03622D01*
X036222Y037824D01*
X036249Y037759D01*
X036292Y037703D01*
X036347Y03766D01*
X036413Y037633D01*
X036427Y037631D01*
Y037839D01*
D02*
G37*
G36*
X055278Y037834D02*
X05507D01*
Y037627D01*
X055085Y037629D01*
X05515Y037656D01*
X055206Y037698D01*
X055249Y037754D01*
X055276Y037819D01*
X055278Y037834D01*
D02*
G37*
G36*
X05496D02*
X054752D01*
X054754Y037819D01*
X054781Y037754D01*
X054824Y037698D01*
X05488Y037656D01*
X054945Y037629D01*
X05496Y037627D01*
Y037834D01*
D02*
G37*
G36*
X043505Y037242D02*
Y037034D01*
X043713D01*
X043711Y037049D01*
X043684Y037114D01*
X043641Y03717D01*
X043585Y037213D01*
X04352Y03724D01*
X043505Y037242D01*
D02*
G37*
G36*
X043395D02*
X043381Y03724D01*
X043316Y037213D01*
X04326Y03717D01*
X043217Y037114D01*
X04319Y037049D01*
X043188Y037034D01*
X043395D01*
Y037242D01*
D02*
G37*
G36*
X045879Y037233D02*
Y03685D01*
X046306D01*
X046298Y036908D01*
X046254Y037014D01*
X046185Y037105D01*
X046094Y037175D01*
X045988Y037219D01*
X045879Y037233D01*
D02*
G37*
G36*
X045769D02*
X045661Y037219D01*
X045555Y037175D01*
X045464Y037105D01*
X045395Y037014D01*
X045351Y036908D01*
X045343Y03685D01*
X045769D01*
Y037233D01*
D02*
G37*
G36*
X043713Y036924D02*
X043505D01*
Y036716D01*
X04352Y036718D01*
X043585Y036745D01*
X043641Y036788D01*
X043684Y036844D01*
X043711Y036909D01*
X043713Y036924D01*
D02*
G37*
G36*
X043395D02*
X043188D01*
X04319Y036909D01*
X043217Y036844D01*
X04326Y036788D01*
X043316Y036745D01*
X043381Y036718D01*
X043395Y036716D01*
Y036924D01*
D02*
G37*
G36*
X043505Y036616D02*
Y036409D01*
X043713D01*
X043711Y036423D01*
X043684Y036489D01*
X043641Y036544D01*
X043585Y036587D01*
X04352Y036614D01*
X043505Y036616D01*
D02*
G37*
G36*
X043395D02*
X043381Y036614D01*
X043316Y036587D01*
X04326Y036544D01*
X043217Y036489D01*
X04319Y036423D01*
X043188Y036409D01*
X043395D01*
Y036616D01*
D02*
G37*
G36*
X045769Y03674D02*
X045343D01*
X045351Y036681D01*
X045395Y036575D01*
X045464Y036485D01*
X045555Y036415D01*
X045661Y036371D01*
X045769Y036357D01*
Y03674D01*
D02*
G37*
G36*
X046306D02*
X045879D01*
Y036357D01*
X045988Y036371D01*
X046094Y036415D01*
X046185Y036485D01*
X046254Y036575D01*
X046298Y036681D01*
X046306Y03674D01*
D02*
G37*
G36*
X05507Y036516D02*
Y036309D01*
X055278D01*
X055276Y036324D01*
X055249Y036389D01*
X055206Y036444D01*
X05515Y036487D01*
X055085Y036514D01*
X05507Y036516D01*
D02*
G37*
G36*
X05496D02*
X054945Y036514D01*
X05488Y036487D01*
X054824Y036444D01*
X054781Y036389D01*
X054754Y036324D01*
X054752Y036309D01*
X05496D01*
Y036516D01*
D02*
G37*
G36*
X043713Y036299D02*
X043505D01*
Y036091D01*
X04352Y036093D01*
X043585Y03612D01*
X043641Y036163D01*
X043684Y036219D01*
X043711Y036284D01*
X043713Y036299D01*
D02*
G37*
G36*
X043395D02*
X043188D01*
X04319Y036284D01*
X043217Y036219D01*
X04326Y036163D01*
X043316Y03612D01*
X043381Y036093D01*
X043395Y036091D01*
Y036299D01*
D02*
G37*
G36*
X055278Y036199D02*
X05507D01*
Y035991D01*
X055085Y035993D01*
X05515Y03602D01*
X055206Y036063D01*
X055249Y036119D01*
X055276Y036184D01*
X055278Y036199D01*
D02*
G37*
G36*
X05496D02*
X054752D01*
X054754Y036184D01*
X054781Y036119D01*
X054824Y036063D01*
X05488Y03602D01*
X054945Y035993D01*
X05496Y035991D01*
Y036199D01*
D02*
G37*
G36*
X050971Y03993D02*
X050671D01*
X050554Y039915D01*
X050444Y03987D01*
X05035Y039798D01*
X050278Y039704D01*
X050233Y039594D01*
X050217Y039477D01*
X050233Y039359D01*
X050278Y03925D01*
X05035Y039156D01*
X050444Y039083D01*
X050554Y039038D01*
X050592Y039033D01*
Y036959D01*
X050594Y036949D01*
X05058Y036808D01*
X050536Y036663D01*
X050465Y036529D01*
X050375Y03642D01*
X050366Y036414D01*
X049209Y035258D01*
X049204Y035249D01*
X049094Y035159D01*
X048961Y035088D01*
X048816Y035044D01*
X048675Y03503D01*
X048665Y035032D01*
X040114D01*
X040063Y035071D01*
X039989Y035102D01*
X039908Y035113D01*
X039828Y035102D01*
X039753Y035071D01*
X039689Y035022D01*
X03964Y034958D01*
X039609Y034883D01*
X039598Y034803D01*
X039609Y034722D01*
X03964Y034648D01*
X039689Y034583D01*
X039753Y034534D01*
X039828Y034503D01*
X039908Y034493D01*
X039989Y034503D01*
X040063Y034534D01*
X040114Y034573D01*
X048665D01*
X04867Y034574D01*
X048857Y034589D01*
X049044Y034634D01*
X049222Y034708D01*
X049387Y034809D01*
X04953Y03493D01*
X049534Y034933D01*
X050691Y03609D01*
X050694Y036094D01*
X050815Y036237D01*
X050916Y036401D01*
X05099Y03658D01*
X051035Y036767D01*
X05105Y036954D01*
X051051Y036959D01*
Y039033D01*
X051089Y039038D01*
X051198Y039083D01*
X051292Y039156D01*
X051364Y03925D01*
X05141Y039359D01*
X051425Y039477D01*
X05141Y039594D01*
X051364Y039704D01*
X051292Y039798D01*
X051198Y03987D01*
X051089Y039915D01*
X050971Y03993D01*
D02*
G37*
G36*
X05507Y034881D02*
Y034673D01*
X055278D01*
X055276Y034688D01*
X055249Y034753D01*
X055206Y034809D01*
X05515Y034852D01*
X055085Y034879D01*
X05507Y034881D01*
D02*
G37*
G36*
X05496D02*
X054945Y034879D01*
X05488Y034852D01*
X054824Y034809D01*
X054781Y034753D01*
X054754Y034688D01*
X054752Y034673D01*
X05496D01*
Y034881D01*
D02*
G37*
G36*
X038701Y034816D02*
Y034608D01*
X038909D01*
X038907Y034623D01*
X03888Y034688D01*
X038837Y034744D01*
X038781Y034787D01*
X038716Y034814D01*
X038701Y034816D01*
D02*
G37*
G36*
X038009D02*
X037994Y034814D01*
X037929Y034787D01*
X037873Y034744D01*
X03783Y034688D01*
X037803Y034623D01*
X037801Y034608D01*
X038009D01*
Y034816D01*
D02*
G37*
G36*
X038591D02*
X038576Y034814D01*
X038511Y034787D01*
X038455Y034744D01*
X038412Y034688D01*
X038386Y034623D01*
X03838Y034582D01*
X03833D01*
X038324Y034623D01*
X038298Y034688D01*
X038255Y034744D01*
X038199Y034787D01*
X038134Y034814D01*
X038119Y034816D01*
Y034553D01*
Y03429D01*
X038134Y034292D01*
X038199Y034319D01*
X038255Y034362D01*
X038298Y034418D01*
X038324Y034483D01*
X03833Y034524D01*
X03838D01*
X038386Y034483D01*
X038412Y034418D01*
X038455Y034362D01*
X038511Y034319D01*
X038576Y034292D01*
X038591Y03429D01*
Y034553D01*
Y034816D01*
D02*
G37*
G36*
X055278Y034563D02*
X05507D01*
Y034356D01*
X055085Y034358D01*
X05515Y034384D01*
X055206Y034427D01*
X055249Y034483D01*
X055276Y034548D01*
X055278Y034563D01*
D02*
G37*
G36*
X05496D02*
X054752D01*
X054754Y034548D01*
X054781Y034483D01*
X054824Y034427D01*
X05488Y034384D01*
X054945Y034358D01*
X05496Y034356D01*
Y034563D01*
D02*
G37*
G36*
X038909Y034498D02*
X038701D01*
Y03429D01*
X038716Y034292D01*
X038781Y034319D01*
X038837Y034362D01*
X03888Y034418D01*
X038907Y034483D01*
X038909Y034498D01*
D02*
G37*
G36*
X038009D02*
X037801D01*
X037803Y034483D01*
X03783Y034418D01*
X037873Y034362D01*
X037929Y034319D01*
X037994Y034292D01*
X038009Y03429D01*
Y034498D01*
D02*
G37*
G36*
X054043Y037463D02*
X053893D01*
X053756Y037444D01*
X053629Y037392D01*
X053519Y037307D01*
X053435Y037198D01*
X053382Y03707D01*
X053364Y036933D01*
X053382Y036796D01*
X053435Y036668D01*
X053519Y036559D01*
X053629Y036474D01*
X053668Y036458D01*
Y036408D01*
X053629Y036392D01*
X053519Y036307D01*
X053435Y036198D01*
X053382Y03607D01*
X053364Y035933D01*
X053382Y035796D01*
X053435Y035668D01*
X053519Y035559D01*
X053629Y035474D01*
X053668Y035458D01*
Y035408D01*
X053629Y035392D01*
X053519Y035307D01*
X053435Y035198D01*
X053382Y03507D01*
X053364Y034933D01*
X053382Y034796D01*
X053435Y034668D01*
X053519Y034559D01*
X053629Y034474D01*
X053644Y034468D01*
X053634Y034418D01*
X053408D01*
Y033988D01*
X053968D01*
X054528D01*
Y034418D01*
X054303D01*
X054293Y034468D01*
X054308Y034474D01*
X054418Y034559D01*
X054502Y034668D01*
X054555Y034796D01*
X054573Y034933D01*
X054555Y03507D01*
X054502Y035198D01*
X054418Y035307D01*
X054308Y035392D01*
X054268Y035408D01*
Y035458D01*
X054308Y035474D01*
X054418Y035559D01*
X054502Y035668D01*
X054555Y035796D01*
X054573Y035933D01*
X054555Y03607D01*
X054502Y036198D01*
X054418Y036307D01*
X054308Y036392D01*
X054268Y036408D01*
Y036458D01*
X054308Y036474D01*
X054418Y036559D01*
X054502Y036668D01*
X054555Y036796D01*
X054573Y036933D01*
X054555Y03707D01*
X054502Y037198D01*
X054418Y037307D01*
X054308Y037392D01*
X05418Y037444D01*
X054043Y037463D01*
D02*
G37*
G36*
X054528Y033878D02*
X054023D01*
Y033448D01*
X054528D01*
Y033878D01*
D02*
G37*
G36*
X053913D02*
X053408D01*
Y033448D01*
X053913D01*
Y033878D01*
D02*
G37*
G36*
X052922Y033247D02*
Y033039D01*
X05313D01*
X053128Y033054D01*
X053101Y033119D01*
X053058Y033175D01*
X053002Y033218D01*
X052937Y033245D01*
X052922Y033247D01*
D02*
G37*
G36*
X052812D02*
X052798Y033245D01*
X052733Y033218D01*
X052677Y033175D01*
X052634Y033119D01*
X052607Y033054D01*
X052605Y033039D01*
X052812D01*
Y033247D01*
D02*
G37*
G36*
X055045Y033245D02*
Y033038D01*
X055253D01*
X055251Y033052D01*
X055224Y033117D01*
X055181Y033173D01*
X055125Y033216D01*
X05506Y033243D01*
X055045Y033245D01*
D02*
G37*
G36*
X054935D02*
X05492Y033243D01*
X054855Y033216D01*
X054799Y033173D01*
X054757Y033117D01*
X05473Y033052D01*
X054728Y033038D01*
X054935D01*
Y033245D01*
D02*
G37*
G36*
X036553Y033044D02*
Y032836D01*
X03676D01*
X036758Y032851D01*
X036731Y032916D01*
X036688Y032972D01*
X036633Y033015D01*
X036568Y033042D01*
X036553Y033044D01*
D02*
G37*
G36*
X036443D02*
X036428Y033042D01*
X036363Y033015D01*
X036307Y032972D01*
X036264Y032916D01*
X036237Y032851D01*
X036235Y032836D01*
X036443D01*
Y033044D01*
D02*
G37*
G36*
X040387Y032997D02*
Y03279D01*
X040594D01*
X040592Y032804D01*
X040565Y032869D01*
X040522Y032925D01*
X040466Y032968D01*
X040401Y032995D01*
X040387Y032997D01*
D02*
G37*
G36*
X040277D02*
X040262Y032995D01*
X040197Y032968D01*
X040141Y032925D01*
X040098Y032869D01*
X040071Y032804D01*
X040069Y03279D01*
X040277D01*
Y032997D01*
D02*
G37*
G36*
X038121Y03297D02*
Y032762D01*
X038328D01*
X038326Y032777D01*
X038299Y032842D01*
X038257Y032898D01*
X038201Y032941D01*
X038136Y032968D01*
X038121Y03297D01*
D02*
G37*
G36*
X038011D02*
X037996Y032968D01*
X037931Y032941D01*
X037875Y032898D01*
X037832Y032842D01*
X037805Y032777D01*
X037803Y032762D01*
X038011D01*
Y03297D01*
D02*
G37*
G36*
X05313Y032929D02*
X052922D01*
Y032722D01*
X052937Y032724D01*
X053002Y03275D01*
X053058Y032793D01*
X053101Y032849D01*
X053128Y032914D01*
X05313Y032929D01*
D02*
G37*
G36*
X052812D02*
X052605D01*
X052607Y032914D01*
X052634Y032849D01*
X052677Y032793D01*
X052733Y03275D01*
X052798Y032724D01*
X052812Y032722D01*
Y032929D01*
D02*
G37*
G36*
X055253Y032928D02*
X055045D01*
Y03272D01*
X05506Y032722D01*
X055125Y032749D01*
X055181Y032792D01*
X055224Y032848D01*
X055251Y032913D01*
X055253Y032928D01*
D02*
G37*
G36*
X054935D02*
X054728D01*
X05473Y032913D01*
X054757Y032848D01*
X054799Y032792D01*
X054855Y032749D01*
X05492Y032722D01*
X054935Y03272D01*
Y032928D01*
D02*
G37*
G36*
X03676Y032726D02*
X036553D01*
Y032518D01*
X036568Y03252D01*
X036633Y032547D01*
X036688Y03259D01*
X036731Y032646D01*
X036758Y032711D01*
X03676Y032726D01*
D02*
G37*
G36*
X036443D02*
X036235D01*
X036237Y032711D01*
X036264Y032646D01*
X036307Y03259D01*
X036363Y032547D01*
X036428Y03252D01*
X036443Y032518D01*
Y032726D01*
D02*
G37*
G36*
X040594Y03268D02*
X040387D01*
Y032472D01*
X040401Y032474D01*
X040466Y032501D01*
X040522Y032544D01*
X040565Y0326D01*
X040592Y032665D01*
X040594Y03268D01*
D02*
G37*
G36*
X040277D02*
X040069D01*
X040071Y032665D01*
X040098Y0326D01*
X040141Y032544D01*
X040197Y032501D01*
X040262Y032474D01*
X040277Y032472D01*
Y03268D01*
D02*
G37*
G36*
X038328Y032652D02*
X038121D01*
Y032445D01*
X038136Y032447D01*
X038201Y032474D01*
X038257Y032517D01*
X038299Y032572D01*
X038326Y032638D01*
X038328Y032652D01*
D02*
G37*
G36*
X038011D02*
X037803D01*
X037805Y032638D01*
X037832Y032572D01*
X037875Y032517D01*
X037931Y032474D01*
X037996Y032447D01*
X038011Y032445D01*
Y032652D01*
D02*
G37*
G36*
X051164Y042141D02*
X045902D01*
X045887Y042138D01*
X045872D01*
X045792Y042122D01*
X045778Y042116D01*
X045763Y042113D01*
X045687Y042082D01*
X045675Y042074D01*
X045661Y042068D01*
X045593Y042022D01*
X045582Y042012D01*
X04557Y042003D01*
X045512Y041945D01*
X045503Y041933D01*
X045493Y041922D01*
X045447Y041854D01*
X045441Y04184D01*
X045433Y041828D01*
X045402Y041752D01*
X045399Y041737D01*
X045393Y041723D01*
X045377Y041643D01*
Y041628D01*
X045374Y041613D01*
Y040053D01*
X04536Y040034D01*
X045312Y039919D01*
X045295Y039795D01*
X045312Y039671D01*
X04536Y039555D01*
X045378Y039531D01*
X045386Y039493D01*
X045404Y039448D01*
X045437Y039398D01*
X045472Y039364D01*
X045521Y039331D01*
X045566Y039312D01*
X045625Y0393D01*
X04567D01*
X045673Y03925D01*
X04565Y039248D01*
X045535Y0392D01*
X045436Y039124D01*
X04536Y039024D01*
X045347Y038994D01*
X041404D01*
X041398Y038993D01*
X041238Y03898D01*
X041076Y038941D01*
X040922Y038877D01*
X04078Y03879D01*
X040653Y038682D01*
X040545Y038555D01*
X040458Y038413D01*
X040394Y038259D01*
X040376Y038185D01*
X040331Y03815D01*
X040282Y038086D01*
X040251Y038011D01*
X04024Y037931D01*
X040251Y03785D01*
X040282Y037776D01*
X040314Y037734D01*
X040289Y037684D01*
X038436D01*
X038428Y037694D01*
X038363Y037743D01*
X038289Y037774D01*
X038208Y037785D01*
X038128Y037774D01*
X038053Y037743D01*
X037989Y037694D01*
X03794Y03763D01*
X037909Y037555D01*
X037898Y037475D01*
X037909Y037394D01*
X03794Y03732D01*
X037989Y037255D01*
X038053Y037206D01*
X038128Y037175D01*
X038208Y037165D01*
X038289Y037175D01*
X038363Y037206D01*
X038428Y037255D01*
X038436Y037266D01*
X041384D01*
X041388Y037267D01*
X041412Y037269D01*
X041422Y037267D01*
X04145Y037273D01*
X041529Y03728D01*
X041669Y037323D01*
X041798Y037392D01*
X041908Y037482D01*
X041912Y037484D01*
X041916Y03749D01*
X041989Y037547D01*
X042082Y037585D01*
X042174Y037597D01*
X042181Y037596D01*
X045347D01*
X04536Y037565D01*
X045436Y037466D01*
X045535Y03739D01*
X04565Y037342D01*
X045774Y037326D01*
X045874D01*
X045998Y037342D01*
X046114Y03739D01*
X046213Y037466D01*
X046289Y037565D01*
X046337Y037681D01*
X046354Y037805D01*
X046337Y037929D01*
X046289Y038044D01*
X046213Y038144D01*
X046114Y03822D01*
X045998Y038268D01*
X045983Y03827D01*
Y03832D01*
X045998Y038322D01*
X046114Y03837D01*
X046213Y038446D01*
X046289Y038545D01*
X046337Y038661D01*
X046354Y038785D01*
X046337Y038909D01*
X046289Y039024D01*
X046213Y039124D01*
X046114Y0392D01*
X045998Y039248D01*
X045976Y03925D01*
X045979Y0393D01*
X046115D01*
X046116Y039301D01*
X046118Y039301D01*
X046145Y039301D01*
X046169Y039306D01*
X046204Y039314D01*
X046254Y039336D01*
X046303Y03937D01*
X04634Y03941D01*
X046373Y03946D01*
X046392Y039511D01*
X046403Y03957D01*
X046402Y039596D01*
Y041025D01*
X046404Y041046D01*
X046422Y041089D01*
X04645Y041117D01*
X046494Y041135D01*
X046514Y041137D01*
X050309D01*
Y040743D01*
X050278Y040704D01*
X050233Y040594D01*
X050217Y040477D01*
X050233Y040359D01*
X050278Y04025D01*
X05035Y040156D01*
X050395Y040121D01*
X050427Y04009D01*
X050427Y04009D01*
X050476Y040057D01*
X050538Y040031D01*
X050597Y040019D01*
X05063D01*
X05063Y040019D01*
X05063Y040019D01*
X050648Y040023D01*
X050669D01*
X050671Y040023D01*
X050971D01*
X050973Y040023D01*
X051171D01*
X051229Y040035D01*
X051257Y040046D01*
X051307Y040079D01*
X051328Y040101D01*
X051345Y040125D01*
X051361Y04015D01*
X051373Y040178D01*
X051385Y040237D01*
X051433Y040247D01*
X051559D01*
X051573Y040199D01*
Y036164D01*
X051575Y036153D01*
X051561Y036013D01*
X051517Y035868D01*
X051445Y035734D01*
X051356Y035625D01*
X051347Y035619D01*
X047875Y032147D01*
X047869Y032138D01*
X04776Y032048D01*
X047626Y031977D01*
X047481Y031933D01*
X047341Y031919D01*
X04733Y031921D01*
X032692D01*
X032641Y03196D01*
X032566Y031991D01*
X032486Y032002D01*
X032406Y031991D01*
X032331Y03196D01*
X032267Y031911D01*
X032217Y031847D01*
X032186Y031772D01*
X032176Y031692D01*
X032186Y031611D01*
X032217Y031537D01*
X032267Y031472D01*
X032331Y031423D01*
X032406Y031392D01*
X032486Y031382D01*
X032566Y031392D01*
X032641Y031423D01*
X032692Y031462D01*
X04331D01*
X043343Y031425D01*
X04334Y031401D01*
X043351Y031321D01*
X043382Y031246D01*
X043431Y031182D01*
X043495Y031132D01*
X04357Y031102D01*
X04365Y031091D01*
X04373Y031102D01*
X043805Y031132D01*
X043869Y031182D01*
X043919Y031246D01*
X04395Y031321D01*
X04396Y031401D01*
X043957Y031425D01*
X04399Y031462D01*
X04733D01*
X047335Y031463D01*
X047522Y031478D01*
X04771Y031523D01*
X047888Y031597D01*
X048052Y031698D01*
X048195Y031819D01*
X048199Y031822D01*
X051671Y035294D01*
X051674Y035299D01*
X051796Y035441D01*
X051897Y035606D01*
X051971Y035784D01*
X052016Y035971D01*
X05203Y036159D01*
X052031Y036164D01*
Y040273D01*
X052029Y040287D01*
X052017Y040378D01*
X051976Y040475D01*
X051941Y040521D01*
X051913Y040559D01*
X051913Y040559D01*
X051913Y040559D01*
X051913Y040559D01*
X051913Y040559D01*
X051913Y040559D01*
X051874Y040589D01*
X051809Y040639D01*
X051688Y040689D01*
X05156Y040706D01*
X051559Y040706D01*
X051385D01*
Y041921D01*
X051373Y041979D01*
X05136Y04201D01*
X051327Y04206D01*
X051303Y042083D01*
X051303Y042083D01*
X051254Y042117D01*
X051223Y042129D01*
X051164Y042141D01*
D02*
G37*
G36*
X028954Y031903D02*
Y031695D01*
X029161D01*
X029159Y03171D01*
X029133Y031775D01*
X02909Y031831D01*
X029034Y031874D01*
X028969Y031901D01*
X028954Y031903D01*
D02*
G37*
G36*
X028844D02*
X028829Y031901D01*
X028764Y031874D01*
X028708Y031831D01*
X028665Y031775D01*
X028638Y03171D01*
X028636Y031695D01*
X028844D01*
Y031903D01*
D02*
G37*
G36*
X028198D02*
Y031695D01*
X028406D01*
X028404Y03171D01*
X028377Y031775D01*
X028334Y031831D01*
X028278Y031874D01*
X028213Y031901D01*
X028198Y031903D01*
D02*
G37*
G36*
X028088D02*
X028074Y031901D01*
X028008Y031874D01*
X027953Y031831D01*
X02791Y031775D01*
X027883Y03171D01*
X027881Y031695D01*
X028088D01*
Y031903D01*
D02*
G37*
G36*
X051909Y031647D02*
Y03144D01*
X052117D01*
X052115Y031454D01*
X052088Y031519D01*
X052045Y031575D01*
X051989Y031618D01*
X051924Y031645D01*
X051909Y031647D01*
D02*
G37*
G36*
X051799D02*
X051785Y031645D01*
X05172Y031618D01*
X051664Y031575D01*
X051621Y031519D01*
X051594Y031454D01*
X051592Y03144D01*
X051799D01*
Y031647D01*
D02*
G37*
G36*
X050347D02*
Y03144D01*
X050554D01*
X050552Y031454D01*
X050525Y031519D01*
X050483Y031575D01*
X050427Y031618D01*
X050362Y031645D01*
X050347Y031647D01*
D02*
G37*
G36*
X050237D02*
X050222Y031645D01*
X050157Y031618D01*
X050101Y031575D01*
X050058Y031519D01*
X050031Y031454D01*
X050029Y03144D01*
X050237D01*
Y031647D01*
D02*
G37*
G36*
X048784D02*
Y03144D01*
X048992D01*
X04899Y031454D01*
X048963Y031519D01*
X04892Y031575D01*
X048864Y031618D01*
X048799Y031645D01*
X048784Y031647D01*
D02*
G37*
G36*
X048674D02*
X048659Y031645D01*
X048594Y031618D01*
X048538Y031575D01*
X048496Y031519D01*
X048469Y031454D01*
X048467Y03144D01*
X048674D01*
Y031647D01*
D02*
G37*
G36*
X029161Y031585D02*
X028954D01*
Y031377D01*
X028969Y031379D01*
X029034Y031406D01*
X02909Y031449D01*
X029133Y031505D01*
X029159Y03157D01*
X029161Y031585D01*
D02*
G37*
G36*
X028844D02*
X028636D01*
X028638Y03157D01*
X028665Y031505D01*
X028708Y031449D01*
X028764Y031406D01*
X028829Y031379D01*
X028844Y031377D01*
Y031585D01*
D02*
G37*
G36*
X028406D02*
X028198D01*
Y031377D01*
X028213Y031379D01*
X028278Y031406D01*
X028334Y031449D01*
X028377Y031505D01*
X028404Y03157D01*
X028406Y031585D01*
D02*
G37*
G36*
X028088D02*
X027881D01*
X027883Y03157D01*
X02791Y031505D01*
X027953Y031449D01*
X028008Y031406D01*
X028074Y031379D01*
X028088Y031377D01*
Y031585D01*
D02*
G37*
G36*
X053857Y032618D02*
X053712Y032604D01*
X053572Y032562D01*
X053444Y032493D01*
X053331Y0324D01*
X053238Y032288D01*
X05317Y032159D01*
X053127Y032019D01*
X053113Y031874D01*
X053127Y031729D01*
X05317Y03159D01*
X053238Y031461D01*
X053331Y031348D01*
X053444Y031256D01*
X053572Y031187D01*
X053712Y031144D01*
X053857Y03113D01*
X054002Y031144D01*
X054142Y031187D01*
X054271Y031256D01*
X054383Y031348D01*
X054476Y031461D01*
X054545Y03159D01*
X054587Y031729D01*
X054601Y031874D01*
X054587Y032019D01*
X054545Y032159D01*
X054476Y032288D01*
X054383Y0324D01*
X054271Y032493D01*
X054142Y032562D01*
X054002Y032604D01*
X053857Y032618D01*
D02*
G37*
G36*
X052117Y03133D02*
X051909D01*
Y031122D01*
X051924Y031124D01*
X051989Y031151D01*
X052045Y031194D01*
X052088Y03125D01*
X052115Y031315D01*
X052117Y03133D01*
D02*
G37*
G36*
X051799D02*
X051592D01*
X051594Y031315D01*
X051621Y03125D01*
X051664Y031194D01*
X05172Y031151D01*
X051785Y031124D01*
X051799Y031122D01*
Y03133D01*
D02*
G37*
G36*
X050554D02*
X050347D01*
Y031122D01*
X050362Y031124D01*
X050427Y031151D01*
X050483Y031194D01*
X050525Y03125D01*
X050552Y031315D01*
X050554Y03133D01*
D02*
G37*
G36*
X050237D02*
X050029D01*
X050031Y031315D01*
X050058Y03125D01*
X050101Y031194D01*
X050157Y031151D01*
X050222Y031124D01*
X050237Y031122D01*
Y03133D01*
D02*
G37*
G36*
X048992D02*
X048784D01*
Y031122D01*
X048799Y031124D01*
X048864Y031151D01*
X04892Y031194D01*
X048963Y03125D01*
X04899Y031315D01*
X048992Y03133D01*
D02*
G37*
G36*
X048674D02*
X048467D01*
X048469Y031315D01*
X048496Y03125D01*
X048538Y031194D01*
X048594Y031151D01*
X048659Y031124D01*
X048674Y031122D01*
Y03133D01*
D02*
G37*
%LPD*%
G36*
X051195Y041975D02*
X051219Y041952D01*
X051232Y041921D01*
Y041904D01*
Y040252D01*
Y040237D01*
X05122Y040209D01*
X051199Y040187D01*
X051171Y040176D01*
X050627D01*
X05063Y040172D01*
X050597D01*
X050535Y040198D01*
X050487Y040246D01*
X050462Y040308D01*
Y040341D01*
Y041162D01*
X050459Y041187D01*
X05044Y041233D01*
X050404Y041268D01*
X050358Y041288D01*
X050333Y04129D01*
X046506D01*
X046456Y041285D01*
X046364Y041247D01*
X046293Y041176D01*
X046254Y041083D01*
X046249Y041033D01*
Y039594D01*
X04625Y039567D01*
X04623Y039516D01*
X046192Y039476D01*
X046142Y039454D01*
X046115Y039453D01*
X045649Y039453D01*
X045625D01*
X04558Y039472D01*
X045545Y039507D01*
X045527Y039552D01*
Y039576D01*
Y041572D01*
Y041613D01*
X045543Y041693D01*
X045574Y041769D01*
X04562Y041837D01*
X045678Y041895D01*
X045746Y041941D01*
X045822Y041972D01*
X045902Y041988D01*
X051164D01*
X051195Y041975D01*
D02*
G37*
G36*
X041404Y038576D02*
X045347D01*
X04536Y038545D01*
X045436Y038446D01*
X045535Y03837D01*
X04565Y038322D01*
X045666Y03832D01*
Y03827D01*
X04565Y038268D01*
X045535Y03822D01*
X045436Y038144D01*
X04536Y038044D01*
X045347Y038014D01*
X042181D01*
X042179Y038013D01*
X042159Y038011D01*
X042151Y038013D01*
X042128Y038008D01*
X042025Y037998D01*
X041875Y037953D01*
X041737Y037879D01*
X041618Y037781D01*
X041616Y03778D01*
X041613Y037775D01*
X041549Y037726D01*
X041469Y037693D01*
X041389Y037683D01*
X041384Y037684D01*
X040811D01*
X040787Y037734D01*
X040819Y037776D01*
X04085Y03785D01*
X04086Y037931D01*
X04085Y038011D01*
X040819Y038086D01*
X04079Y038124D01*
X040806Y038178D01*
X040866Y03829D01*
X040947Y038388D01*
X041045Y038469D01*
X041157Y038529D01*
X041278Y038565D01*
X041397Y038577D01*
X041404Y038576D01*
D02*
G37*
%LPC*%
G36*
X029665Y040905D02*
Y040403D01*
X030099D01*
Y040423D01*
X030083Y040549D01*
X030034Y040667D01*
X029956Y040769D01*
X029855Y040846D01*
X029737Y040895D01*
X029665Y040905D01*
D02*
G37*
G36*
X029555D02*
X029484Y040895D01*
X029366Y040846D01*
X029264Y040769D01*
X029187Y040667D01*
X029138Y040549D01*
X029121Y040423D01*
Y040403D01*
X029555D01*
Y040905D01*
D02*
G37*
G36*
X03481Y040878D02*
Y040376D01*
X035244D01*
Y040396D01*
X035227Y040523D01*
X035178Y040641D01*
X0351Y040742D01*
X034999Y04082D01*
X034881Y040869D01*
X03481Y040878D01*
D02*
G37*
G36*
X0347Y040878D02*
X034628Y040869D01*
X03451Y04082D01*
X034409Y040742D01*
X034331Y040641D01*
X034282Y040523D01*
X034265Y040396D01*
Y040376D01*
X0347D01*
Y040878D01*
D02*
G37*
G36*
X030099Y040293D02*
X029665D01*
Y039791D01*
X029737Y0398D01*
X029855Y039849D01*
X029956Y039927D01*
X030034Y040028D01*
X030083Y040146D01*
X030099Y040273D01*
Y040293D01*
D02*
G37*
G36*
X029555D02*
X029121D01*
Y040273D01*
X029138Y040146D01*
X029187Y040028D01*
X029264Y039927D01*
X029366Y039849D01*
X029484Y0398D01*
X029555Y039791D01*
Y040293D01*
D02*
G37*
G36*
X0347Y040266D02*
X034265D01*
Y040246D01*
X034282Y04012D01*
X034331Y040002D01*
X034409Y0399D01*
X03451Y039823D01*
X034628Y039774D01*
X0347Y039764D01*
Y040266D01*
D02*
G37*
G36*
X035244D02*
X03481D01*
Y039764D01*
X034881Y039774D01*
X034999Y039823D01*
X0351Y0399D01*
X035178Y040002D01*
X035227Y04012D01*
X035244Y040246D01*
Y040266D01*
D02*
G37*
G36*
X028029Y040928D02*
X026979D01*
Y039728D01*
X028029D01*
Y040928D01*
D02*
G37*
G36*
X033173Y040902D02*
X032123D01*
Y039702D01*
X033173D01*
Y040902D01*
D02*
G37*
%LPD*%
D10*
X041877Y042244D02*
G03*
X041169Y041951I0J-001D01*
G01*
X037353Y038549D02*
G03*
X03806Y038842I0J001D01*
G01*
X041422Y037476D02*
G03*
X041764Y037632I-000038J000536D01*
G01*
X041384Y037475D02*
G03*
X041422Y037476I0J000538D01*
G01*
X042151Y037804D02*
G03*
X041764Y037632I00003J-000589D01*
G01*
X042181Y037805D02*
G03*
X042151Y037804I0J-000589D01*
G01*
X041404Y038785D02*
G03*
X04055Y037931I0J-000854D01*
G01*
X041877Y042244D02*
X043198D01*
X03806Y038842D02*
X041169Y041951D01*
X03504Y038549D02*
X037353D01*
X038208Y037475D02*
X041384D01*
X042181Y037805D02*
X045824D01*
X041404Y038785D02*
X045824D01*
D11*
X043681Y031692D02*
G03*
X04365Y031617I000075J-000075D01*
G01*
X048665Y034803D02*
G03*
X049372Y035096I0J001D01*
G01*
X050528Y036252D02*
G03*
X050821Y036959I-000707J000707D01*
G01*
X051751Y040397D02*
G03*
X051559Y040477I-000192J-000192D01*
G01*
X051802Y040273D02*
G03*
X051751Y040397I-000175J0D01*
G01*
X051509Y035457D02*
G03*
X051802Y036164I-000707J000707D01*
G01*
X04733Y031692D02*
G03*
X048037Y031985I0J001D01*
G01*
X043681Y031692D02*
X04733D01*
X032486D02*
X043681D01*
X04365Y031401D02*
Y031617D01*
X039908Y034803D02*
X048665D01*
X049372Y035096D02*
X050528Y036252D01*
X050821Y036959D02*
Y039477D01*
Y040477D02*
X051559D01*
X051802Y036164D02*
Y040273D01*
X048037Y031985D02*
X051509Y035457D01*
D14*
X045824Y039756D02*
G03*
X045864Y039716I00004J0D01*
G01*
X050821Y041269D02*
G03*
X050595Y041496I-000227J0D01*
G01*
X046324Y041509D02*
G03*
X045824Y041009I0J-0005D01*
G01*
X050821Y040477D02*
Y041269D01*
X046739Y041501D02*
X05055D01*
X045824Y039756D02*
Y039795D01*
Y041009D01*
X046324Y041509D02*
X046739D01*
X034755Y044239D02*
Y044277D01*
D33*
X053968Y036933D02*
D03*
Y035933D02*
D03*
Y034933D02*
D03*
D34*
Y033933D02*
D03*
D35*
X044653Y043585D02*
D03*
X049288D02*
D03*
X038311D02*
D03*
X039311D02*
D03*
X040311D02*
D03*
X037311D02*
D03*
X02961Y040348D02*
D03*
Y044265D02*
D03*
X027504D02*
D03*
X034755Y040321D02*
D03*
Y044239D02*
D03*
X032648D02*
D03*
D36*
X045653Y043585D02*
D03*
X050288D02*
D03*
X041311D02*
D03*
X027504Y040328D02*
D03*
X032648Y040302D02*
D03*
D37*
X050821Y040477D02*
D03*
Y039477D02*
D03*
X047821D02*
D03*
D38*
Y040477D02*
D03*
D39*
X045824Y039795D02*
D03*
Y038785D02*
D03*
Y037805D02*
D03*
Y036795D02*
D03*
D40*
X053857Y031874D02*
D03*
X026693Y031734D02*
D03*
X053857Y044166D02*
D03*
D41*
X028899Y03164D02*
D03*
X04345Y036354D02*
D03*
Y036979D02*
D03*
X039908Y034803D02*
D03*
X032486Y031692D02*
D03*
X04055Y037931D02*
D03*
X038208Y037475D02*
D03*
X03504Y038549D02*
D03*
X043198Y042244D02*
D03*
X036498Y032781D02*
D03*
X036482Y037894D02*
D03*
X04365Y031401D02*
D03*
X051854Y031385D02*
D03*
X047498Y044881D02*
D03*
X049622D02*
D03*
X051746D02*
D03*
X04325D02*
D03*
X045374D02*
D03*
X048729Y031385D02*
D03*
X050292D02*
D03*
X055015Y037889D02*
D03*
Y036254D02*
D03*
Y034618D02*
D03*
X05499Y032983D02*
D03*
X052867Y032984D02*
D03*
X043479Y039503D02*
D03*
X028143Y03164D02*
D03*
X038066Y032707D02*
D03*
X040332Y032735D02*
D03*
X038064Y034553D02*
D03*
X038646D02*
D03*
X039119Y038703D02*
D03*
M02*
