G04 Layer_Color=128*
%FSTAX24Y24*%
%MOIN*%
G70*
G01*
G75*
%ADD75C,0.0020*%
D75*
X032319Y04427D02*
X032659D01*
X032489Y0441D02*
Y04444D01*
X034426Y04427D02*
X034766D01*
X034596Y0441D02*
Y04444D01*
X034426Y040353D02*
X034766D01*
X034596Y040183D02*
Y040523D01*
X032319Y040333D02*
X032659D01*
X032489Y040163D02*
Y040503D01*
X02644Y044266D02*
X02678D01*
X02661Y044096D02*
Y044436D01*
X028546Y044266D02*
X028886D01*
X028716Y044096D02*
Y044436D01*
X028546Y040349D02*
X028886D01*
X028716Y040179D02*
Y040519D01*
X02644Y040329D02*
X02678D01*
X02661Y040159D02*
Y040499D01*
X053267Y044166D02*
X054448D01*
X053857Y043575D02*
Y044756D01*
X026103Y031734D02*
X027284D01*
X026693Y031144D02*
Y032325D01*
X053267Y031874D02*
X054448D01*
X053857Y031284D02*
Y032465D01*
X045644Y036795D02*
X046004D01*
X045824Y036615D02*
Y036975D01*
X045644Y037805D02*
X046004D01*
X045824Y037625D02*
Y037985D01*
X045644Y038785D02*
X046004D01*
X045824Y038605D02*
Y038965D01*
X045644Y039795D02*
X046004D01*
X045824Y039615D02*
Y039975D01*
X047666Y040477D02*
X047976D01*
X047821Y040322D02*
Y040632D01*
X047666Y039477D02*
X047976D01*
X047821Y039322D02*
Y039632D01*
X050666Y039477D02*
X050976D01*
X050821Y039322D02*
Y039632D01*
X050666Y040477D02*
X050976D01*
X050821Y040322D02*
Y040632D01*
X037141Y043585D02*
X037481D01*
X037311Y043415D02*
Y043755D01*
X041141Y043585D02*
X041481D01*
X041311Y043415D02*
Y043755D01*
X040141Y043585D02*
X040481D01*
X040311Y043415D02*
Y043755D01*
X039141Y043585D02*
X039481D01*
X039311Y043415D02*
Y043755D01*
X038141Y043585D02*
X038481D01*
X038311Y043415D02*
Y043755D01*
X050118Y043585D02*
X050458D01*
X050288Y043415D02*
Y043755D01*
X049118Y043585D02*
X049458D01*
X049288Y043415D02*
Y043755D01*
X045483Y043585D02*
X045823D01*
X045653Y043415D02*
Y043755D01*
X044483Y043585D02*
X044823D01*
X044653Y043415D02*
Y043755D01*
X053798Y033933D02*
X054138D01*
X053968Y033763D02*
Y034103D01*
X053798Y034933D02*
X054138D01*
X053968Y034763D02*
Y035103D01*
X053798Y035933D02*
X054138D01*
X053968Y035763D02*
Y036103D01*
X053798Y036933D02*
X054138D01*
X053968Y036763D02*
Y037103D01*
X03904Y038703D02*
X039198D01*
X039119Y038625D02*
Y038782D01*
X038567Y034553D02*
X038725D01*
X038646Y034474D02*
Y034632D01*
X037985Y034553D02*
X038143D01*
X038064Y034474D02*
Y034632D01*
X040253Y032735D02*
X04041D01*
X040332Y032656D02*
Y032813D01*
X037987Y032707D02*
X038145D01*
X038066Y032629D02*
Y032786D01*
X028065Y03164D02*
X028222D01*
X028143Y031561D02*
Y031719D01*
X0434Y039503D02*
X043558D01*
X043479Y039424D02*
Y039581D01*
X052789Y032984D02*
X052946D01*
X052867Y032905D02*
Y033063D01*
X054911Y032983D02*
X055069D01*
X05499Y032904D02*
Y033061D01*
X054936Y034618D02*
X055094D01*
X055015Y034539D02*
Y034697D01*
X054936Y036254D02*
X055094D01*
X055015Y036175D02*
Y036332D01*
X054936Y037889D02*
X055094D01*
X055015Y037811D02*
Y037968D01*
X050213Y031385D02*
X050371D01*
X050292Y031306D02*
Y031463D01*
X04865Y031385D02*
X048808D01*
X048729Y031306D02*
Y031463D01*
X045295Y044881D02*
X045453D01*
X045374Y044802D02*
Y04496D01*
X043171Y044881D02*
X043329D01*
X04325Y044802D02*
Y04496D01*
X051667Y044881D02*
X051824D01*
X051746Y044802D02*
Y04496D01*
X049543Y044881D02*
X049701D01*
X049622Y044802D02*
Y04496D01*
X047419Y044881D02*
X047577D01*
X047498Y044802D02*
Y04496D01*
X051776Y031385D02*
X051933D01*
X051854Y031306D02*
Y031463D01*
X043571Y031401D02*
X043729D01*
X04365Y031322D02*
Y03148D01*
X036404Y037894D02*
X036561D01*
X036482Y037815D02*
Y037972D01*
X036419Y032781D02*
X036576D01*
X036498Y032702D02*
Y03286D01*
X043119Y042244D02*
X043276D01*
X043198Y042166D02*
Y042323D01*
X034961Y038549D02*
X035119D01*
X03504Y038471D02*
Y038628D01*
X03813Y037475D02*
X038287D01*
X038208Y037396D02*
Y037553D01*
X040471Y037931D02*
X040629D01*
X04055Y037852D02*
Y038009D01*
X032407Y031692D02*
X032565D01*
X032486Y031613D02*
Y03177D01*
X03983Y034803D02*
X039987D01*
X039908Y034724D02*
Y034881D01*
X043372Y036979D02*
X043529D01*
X04345Y0369D02*
Y037058D01*
X043372Y036354D02*
X043529D01*
X04345Y036275D02*
Y036432D01*
X02882Y03164D02*
X028978D01*
X028899Y031561D02*
Y031719D01*
M02*
