G04 Layer_Color=8388736*
%FSTAX24Y24*%
%MOIN*%
G70*
G01*
G75*
%ADD52R,0.0572X0.0651*%
%ADD53R,0.0552X0.0415*%
%ADD54R,0.0560X0.0560*%
%ADD55R,0.0560X0.0560*%
%ADD56R,0.0178X0.0729*%
%ADD57R,0.0729X0.0178*%
%ADD58R,0.1025X0.1379*%
%ADD59R,0.1025X0.0474*%
%ADD60O,0.0323X0.0748*%
%ADD61R,0.0651X0.0572*%
%ADD62R,0.0532X0.0532*%
%ADD63R,0.0926X0.0926*%
%ADD64R,0.0867X0.0867*%
%ADD65R,0.2480X0.0552*%
%ADD66R,0.0316X0.0710*%
%ADD67R,0.0710X0.0316*%
%ADD68O,0.0980X0.0830*%
%ADD69R,0.0980X0.0830*%
%ADD70O,0.0830X0.0980*%
%ADD71R,0.0830X0.0980*%
%ADD72O,0.0980X0.0680*%
%ADD73R,0.0980X0.0680*%
%ADD74O,0.0830X0.0730*%
%ADD75C,0.1261*%
D52*
X050496Y041631D02*
D03*
X049748D02*
D03*
X031925Y031692D02*
D03*
X031177D02*
D03*
X053737Y042412D02*
D03*
X054485D02*
D03*
X051768Y032146D02*
D03*
X05102D02*
D03*
X051005Y033523D02*
D03*
X051753D02*
D03*
X050987Y034819D02*
D03*
X051735D02*
D03*
X048123Y041609D02*
D03*
X048871D02*
D03*
X040032Y031963D02*
D03*
X04078D02*
D03*
D53*
X04711Y041314D02*
D03*
X046127Y041686D02*
D03*
X046125Y040928D02*
D03*
D54*
X029954Y038982D02*
D03*
X030741D02*
D03*
X028646Y038984D02*
D03*
X027858D02*
D03*
X02955Y031642D02*
D03*
X030337D02*
D03*
X054678Y041506D02*
D03*
X05389D02*
D03*
X052149Y041497D02*
D03*
X052936D02*
D03*
X048445Y038393D02*
D03*
X047658D02*
D03*
X050178Y038417D02*
D03*
X050966D02*
D03*
X038275Y031944D02*
D03*
X039062D02*
D03*
X042493Y031982D02*
D03*
X041705D02*
D03*
D55*
X044075Y041695D02*
D03*
Y040908D02*
D03*
X036585Y041728D02*
D03*
Y040941D02*
D03*
X039396Y041728D02*
D03*
Y040941D02*
D03*
X041271Y041728D02*
D03*
Y040941D02*
D03*
X043657Y034894D02*
D03*
Y034107D02*
D03*
D56*
X039723Y035442D02*
D03*
X03992D02*
D03*
X040117D02*
D03*
X040314D02*
D03*
X040511D02*
D03*
X040707D02*
D03*
X040904D02*
D03*
X041101D02*
D03*
X041298D02*
D03*
X041495D02*
D03*
X041692D02*
D03*
X041889D02*
D03*
Y038779D02*
D03*
X041692D02*
D03*
X041495D02*
D03*
X041298D02*
D03*
X041101D02*
D03*
X040904D02*
D03*
X040707D02*
D03*
X040511D02*
D03*
X040314D02*
D03*
X040117D02*
D03*
X03992D02*
D03*
X039723D02*
D03*
D57*
X042474Y036028D02*
D03*
Y036225D02*
D03*
Y036422D02*
D03*
Y036619D02*
D03*
Y036816D02*
D03*
Y037013D02*
D03*
Y037209D02*
D03*
Y037406D02*
D03*
Y037603D02*
D03*
Y0378D02*
D03*
Y037997D02*
D03*
Y038194D02*
D03*
X039137D02*
D03*
Y037997D02*
D03*
Y0378D02*
D03*
Y037603D02*
D03*
Y037406D02*
D03*
Y037209D02*
D03*
Y037013D02*
D03*
Y036816D02*
D03*
Y036619D02*
D03*
Y036422D02*
D03*
Y036225D02*
D03*
Y036028D02*
D03*
D58*
X054416Y039526D02*
D03*
D59*
X052133Y038621D02*
D03*
Y039526D02*
D03*
Y040432D02*
D03*
D60*
X046669Y032184D02*
D03*
X046925D02*
D03*
X047181D02*
D03*
X047436D02*
D03*
X047692D02*
D03*
X047948D02*
D03*
X048204D02*
D03*
X04846D02*
D03*
X048716D02*
D03*
X048972D02*
D03*
X049228D02*
D03*
X049484D02*
D03*
X04974D02*
D03*
X049996D02*
D03*
Y035216D02*
D03*
X04974D02*
D03*
X049484D02*
D03*
X049228D02*
D03*
X048972D02*
D03*
X048716D02*
D03*
X04846D02*
D03*
X048204D02*
D03*
X047948D02*
D03*
X047692D02*
D03*
X047436D02*
D03*
X047181D02*
D03*
X046925D02*
D03*
X046669D02*
D03*
D61*
X042202Y041722D02*
D03*
Y040974D02*
D03*
X043178Y040941D02*
D03*
Y041689D02*
D03*
X045052D02*
D03*
Y040941D02*
D03*
X037562Y040974D02*
D03*
Y041722D02*
D03*
X040374D02*
D03*
Y040974D02*
D03*
X038499D02*
D03*
Y041722D02*
D03*
X038271Y036059D02*
D03*
Y036807D02*
D03*
X043644Y031981D02*
D03*
Y032729D02*
D03*
D62*
X052231Y042402D02*
D03*
X052931D02*
D03*
D63*
X044948Y035212D02*
D03*
D64*
Y031865D02*
D03*
D65*
X050861Y036971D02*
D03*
X047711D02*
D03*
X038739Y033523D02*
D03*
X041888D02*
D03*
D66*
X027979Y037835D02*
D03*
X028373D02*
D03*
X028767D02*
D03*
X029161D02*
D03*
X029554D02*
D03*
X029948D02*
D03*
X030342D02*
D03*
X030735D02*
D03*
X031129D02*
D03*
X031523D02*
D03*
X031916D02*
D03*
X03231D02*
D03*
X032704D02*
D03*
X033098D02*
D03*
X033491D02*
D03*
X033885D02*
D03*
X034279D02*
D03*
X034672D02*
D03*
X035066D02*
D03*
X03546D02*
D03*
X035853D02*
D03*
Y032716D02*
D03*
X03546D02*
D03*
X035066D02*
D03*
X034672D02*
D03*
X034279D02*
D03*
X033885D02*
D03*
X033491D02*
D03*
X033098D02*
D03*
X032704D02*
D03*
X03231D02*
D03*
X031916D02*
D03*
X031523D02*
D03*
X031129D02*
D03*
X030735D02*
D03*
X030342D02*
D03*
X029948D02*
D03*
X029554D02*
D03*
X029161D02*
D03*
X028767D02*
D03*
X028373D02*
D03*
X027979D02*
D03*
D67*
X036444Y037047D02*
D03*
Y036653D02*
D03*
Y03626D02*
D03*
Y035866D02*
D03*
Y035472D02*
D03*
Y035079D02*
D03*
Y034685D02*
D03*
Y034291D02*
D03*
Y033898D02*
D03*
Y033504D02*
D03*
D68*
X053968Y036933D02*
D03*
Y035933D02*
D03*
Y034933D02*
D03*
D69*
Y033933D02*
D03*
D70*
X044653Y043585D02*
D03*
X049288D02*
D03*
X038311D02*
D03*
X039311D02*
D03*
X040311D02*
D03*
X037311D02*
D03*
X02961Y040348D02*
D03*
Y044265D02*
D03*
X027504D02*
D03*
X034755Y040321D02*
D03*
Y044239D02*
D03*
X032648D02*
D03*
D71*
X045653Y043585D02*
D03*
X050288D02*
D03*
X041311D02*
D03*
X027504Y040328D02*
D03*
X032648Y040302D02*
D03*
D72*
X050821Y040477D02*
D03*
Y039477D02*
D03*
X047821D02*
D03*
D73*
Y040477D02*
D03*
D74*
X045824Y039795D02*
D03*
Y038785D02*
D03*
Y037805D02*
D03*
Y036795D02*
D03*
D75*
X053857Y031874D02*
D03*
X026693Y031734D02*
D03*
X053857Y044166D02*
D03*
M02*
